<svg xmlns="http://www.w3.org/2000/svg" height="24" viewBox="0 -960 960 960" width="24"><path d="M480-160q-140.231 0-230.116-35.731Q160-231.461 160-287.692V-680q0-49.846 93.577-84.923Q347.154-800 480-800t226.423 35.077Q800-729.846 800-680v392.308q0 56.231-89.884 91.961Q620.231-160 480-160Zm0-444.385q85.923 0 173.231-23.961 87.308-23.962 104.461-52.192-16.384-29.77-102.807-54.616T480-760q-87.154 0-174.654 23.962-87.5 23.961-104.577 52.423 16.308 30 103.039 54.615 86.73 24.615 176.192 24.615Zm0 201.308q41.231 0 81-4t76.038-11.885q36.27-7.884 67.385-19.653 31.115-11.77 55.577-26.539V-629q-24.462 14.77-55.577 26.539-31.115 11.769-67.385 19.654-36.269 7.884-76.038 11.884t-81 4q-42.769 0-83.154-4.384-40.384-4.385-76.269-12.27-35.885-7.884-66.5-19.269Q223.462-614.23 200-629v163.846q23.462 14.769 54.077 26.154t66.5 19.269q35.885 7.885 76.269 12.269 40.385 4.385 83.154 4.385ZM480-200q51.385 0 97.731-5.846T661-222.423q36.923-10.731 62.769-25.615 25.846-14.885 36.231-32.193v-144.923q-24.462 14.77-55.577 26.539-31.115 11.769-67.385 19.654-36.269 7.884-76.038 11.884t-81 4q-42.769 0-83.154-4.384-40.384-4.385-76.269-12.269-35.885-7.885-66.5-19.27-30.615-11.384-54.077-26.154V-280q10.385 18.077 36.115 32.462 25.731 14.384 62.654 25.115 36.923 10.731 83.385 16.577Q428.615-200 480-200Z"/></svg>